#
#
#

mtllib broken pillar.mtl


#
# Mesh Mesh
#
g Mesh Mesh


#
# Mesh Mesh_Default - Lambert
#
usemtl Mesh Mesh_Default - Lambert

v 0.866749 1.485855 0.000000
v 0.750628 1.609676 -0.433374
v 0.866749 1.609676 0.000000
v 0.750628 1.485855 -0.433374
v 0.433374 1.609676 -0.750628
v 0.433374 1.485855 -0.750628
v 0.000000 1.609676 -0.866749
v 0.000000 1.485855 -0.866749
v -0.433374 1.609676 -0.750628
v -0.433374 1.485855 -0.750628
v -0.750628 1.609676 -0.433374
v -0.750628 1.485855 -0.433374
v -0.866749 1.609676 0.000000
v -0.866749 1.485855 0.000000
v -0.750628 1.609676 0.433374
v -0.750628 1.485855 0.433374
v -0.433374 1.609676 0.750628
v -0.433374 1.485855 0.750628
v 0.000000 1.609676 0.866749
v 0.000000 1.485855 0.866749
v 0.433374 1.609676 0.750628
v 0.433374 1.485855 0.750628
v 0.750628 1.609676 0.433374
v 0.750628 1.485855 0.433374
v 0.639611 1.733498 -0.369278
v 0.738556 1.733498 0.000000
v 0.369278 1.733498 -0.639611
v 0.000000 1.733498 -0.738556
v -0.369278 1.733498 -0.639611
v -0.639611 1.733498 -0.369278
v -0.738556 1.733498 0.000000
v -0.639611 1.733498 0.369278
v -0.369278 1.733498 0.639611
v 0.000000 1.733498 0.738556
v 0.369278 1.733498 0.639611
v 0.639611 1.733498 0.369278
v 0.639611 1.857319 -0.369278
v 0.738556 1.857319 0.000000
v 0.369278 1.857319 -0.639611
v 0.000000 1.857319 -0.738556
v -0.369278 1.857319 -0.639611
v -0.639611 1.857319 -0.369278
v -0.738556 1.857319 0.000000
v -0.639611 1.857319 0.369278
v -0.369278 1.857319 0.639611
v 0.000000 1.857319 0.738556
v 0.369278 1.857319 0.639611
v 0.639611 1.857319 0.369278
v 0.528599 1.981140 -0.305182
v 0.610371 1.981140 0.000000
v 0.305182 1.981140 -0.528599
v 0.000000 1.981140 -0.610371
v -0.305182 1.981140 -0.528599
v -0.528599 1.981140 -0.305182
v -0.610371 1.981140 0.000000
v -0.528599 1.981140 0.305182
v -0.305188 1.981140 0.528599
v 0.000000 1.981140 0.610371
v 0.305182 1.981140 0.528599
v 0.528593 1.981140 0.305188
v 0.528599 7.875305 -0.305182
v 0.610371 8.318947 0.000000
v 0.305182 6.676254 -0.528599
v 0.000000 6.424126 -0.610371
v -0.305182 6.389122 -0.528599
v -0.305182 4.254639 -0.528599
v -0.610371 3.338566 0.000000
v -0.528599 3.958031 -0.305182
v -0.528599 3.176483 0.305182
v 0.000000 3.814102 0.610371
v -0.305188 3.515209 0.528599
v 0.305182 8.282585 0.528599
v 0.528593 8.365021 0.305188
v 0.400500 8.026291 -0.250206
v -0.451787 8.035591 0.058809
v 0.475492 8.433105 0.029655
v 0.058382 8.497101 0.472440
v 0.448419 8.596771 0.162528
v 0.121444 8.593918 0.276239
v -0.610371 7.284248 0.000000
v -0.528599 7.777481 0.305182
v -0.528599 6.580635 -0.305182
v 0.000000 8.110077 0.610371
v -0.305188 7.801384 0.528599
v -0.307826 8.055779 0.431715
v -0.528599 5.555481 -0.305182
v -0.610371 5.733612 0.000000
v -0.528599 5.045036 0.305182
v -0.305188 4.744583 0.528599
v -0.440104 4.203117 0.069891
v -0.990570 1.485855 0.990570
v 0.990570 1.485855 0.990570
v 0.990570 1.485855 -0.990570
v -0.990570 1.485855 -0.990570
v 0.990570 0.000000 -0.990570
v 0.990570 0.247643 -0.990570
v 0.990570 0.247643 0.990570
v 0.866749 0.371464 -0.866749
v 0.866749 0.371464 0.866749
v 0.866749 1.238213 -0.866749
v 0.866749 1.238213 0.866749
v 0.990570 1.238213 -0.990570
v 0.990570 1.238213 0.990570
v 0.990570 0.000000 0.990570
v -0.990570 0.000000 0.990570
v -0.990570 0.247643 0.990570
v -0.866749 0.371464 0.866749
v -0.866749 1.238213 0.866749
v -0.990570 1.238213 0.990570
v -0.990570 0.247643 -0.990570
v -0.866749 0.371464 -0.866749
v -0.866749 1.238213 -0.866749
v -0.990570 1.238213 -0.990570
v -0.990570 0.000000 -0.990570
vn 1.000000 0.000000 0.000000
vn 0.866019 0.000000 -0.500011
vn 0.500011 0.000000 -0.866019
vn 0.000000 0.000000 -1.000000
vn -0.500011 0.000000 -0.866019
vn -0.866019 0.000000 -0.500011
vn -1.000000 0.000000 0.000000
vn -0.866019 0.000000 0.500011
vn -0.500011 0.000000 0.866019
vn 0.000000 0.000000 1.000000
vn 0.500011 0.000000 0.866019
vn 0.866019 0.000000 0.500011
vn 0.683011 0.707111 -0.183003
vn 0.500002 0.707103 -0.500002
vn 0.183003 0.707111 -0.683011
vn -0.183003 0.707111 -0.683011
vn -0.500002 0.707103 -0.500002
vn -0.683011 0.707111 -0.183003
vn -0.683011 0.707111 0.183003
vn -0.500002 0.707103 0.500002
vn -0.183003 0.707111 0.683011
vn 0.183003 0.707111 0.683011
vn 0.500002 0.707103 0.500002
vn 0.683011 0.707111 0.183003
vn 0.965929 0.000000 -0.258808
vn 0.707107 0.000000 -0.707107
vn 0.258808 0.000000 -0.965929
vn -0.258808 0.000000 -0.965929
vn -0.707107 0.000000 -0.707107
vn -0.965929 0.000000 -0.258808
vn -0.965929 0.000000 0.258808
vn -0.707107 0.000000 0.707107
vn -0.258808 0.000000 0.965929
vn 0.258808 0.000000 0.965929
vn 0.707107 0.000000 0.707107
vn 0.965929 0.000000 0.258808
vn -0.272298 0.578895 -0.768593
vn 0.158496 0.864279 0.477389
vn -0.973880 0.211896 -0.081598
vn 0.256391 0.515281 -0.817771
vn 0.891760 0.416882 0.175992
vn 0.068599 0.325694 0.942983
vn 0.462399 0.575299 0.674699
vn -0.698097 0.248499 0.671497
vn -0.517894 0.299797 0.801191
vn -0.714684 0.690584 0.110997
vn -0.965291 -0.126499 -0.228498
vn -0.839563 0.523777 -0.144194
vn -0.993787 -0.109699 0.018800
vn -0.974232 -0.117204 -0.192706
vn -0.825457 -0.230688 0.515173
vn -0.828747 -0.226886 0.511567
vn -0.976797 0.183399 0.110600
vn -0.930128 0.156305 0.332310
vn -0.824514 0.193003 0.531909
vn -0.566087 0.377591 0.732783
vn -0.277094 0.246895 -0.928581
vn -0.331000 0.212900 -0.919300
vn 0.000000 1.000000 0.000000
vn 0.384221 0.620935 0.683238
vn -0.754908 0.602607 0.258803
vn -0.809796 0.512897 0.284899
vn -0.515281 0.355587 0.779771
vn -0.165598 0.210397 -0.963489
vn 0.374205 0.621008 -0.688709
vn -0.720213 0.203904 -0.663112
vn 0.707107 0.707107 0.000000
vn 0.000000 -1.000000 0.000000
vn 0.000000 0.707107 0.707107
vn -0.707107 0.707107 0.000000
vn 0.000000 0.707107 -0.707107
vt 0.583400 0.000000
vt 0.500500 0.018800
vt 0.583400 0.018800
vt 0.500500 0.000000
vt 0.417500 0.018800
vt 0.417500 0.000000
vt 0.334500 0.018800
vt 0.334500 0.000000
vt 0.251500 0.018800
vt 0.251500 0.000000
vt 0.168500 0.018800
vt 0.168500 0.000000
vt 0.085500 0.018800
vt 0.085500 0.000000
vt 0.000000 0.018800
vt 1.000000 0.000000
vt 0.916300 0.018800
vt 1.000000 0.018800
vt 0.916300 0.000000
vt 0.832400 0.018800
vt 0.832400 0.000000
vt 0.749400 0.018800
vt 0.749400 0.000000
vt 0.666400 0.018800
vt 0.666400 0.000000
vt 0.500500 0.036400
vt 0.583400 0.036400
vt 0.417500 0.036400
vt 0.334500 0.036400
vt 0.251500 0.036400
vt 0.168500 0.036400
vt 0.085500 0.036400
vt 0.000000 0.036400
vt 0.916300 0.036400
vt 1.000000 0.036400
vt 0.832400 0.036400
vt 0.749400 0.036400
vt 0.666400 0.036400
vt 0.500500 0.048800
vt 0.583400 0.048800
vt 0.417500 0.048800
vt 0.334500 0.048800
vt 0.251500 0.048800
vt 0.168500 0.048800
vt 0.085500 0.048800
vt 0.000000 0.048800
vt 0.916300 0.048800
vt 1.000000 0.048800
vt 0.832400 0.048800
vt 0.749400 0.048800
vt 0.666400 0.048800
vt 0.500500 0.066400
vt 0.583400 0.066400
vt 0.417500 0.066400
vt 0.334500 0.066400
vt 0.251500 0.066400
vt 0.168500 0.066400
vt 0.085500 0.066400
vt 0.000000 0.066400
vt 0.916300 0.066400
vt 1.000000 0.066400
vt 0.832400 0.066400
vt 0.749400 0.066400
vt 0.666400 0.066400
vt 0.500500 0.689100
vt 0.583400 0.703400
vt 0.417500 0.538300
vt 0.334500 0.513000
vt 0.251500 0.509500
vt 0.251500 0.294900
vt 0.085500 0.202900
vt 0.168500 0.265100
vt 0.000000 0.186600
vt 1.000000 0.186700
vt 0.832400 0.250600
vt 0.915800 0.220400
vt 0.749400 0.699800
vt 0.666400 0.708000
vt 0.438300 0.679900
vt 0.146000 0.697000
vt 0.438300 0.793900
vt 0.247300 0.913800
vt 0.415200 0.858200
vt 0.291300 0.851900
vt 0.085500 0.599400
vt 0.000000 0.718800
vt 0.509700 0.810700
vt 0.168500 0.528700
vt 0.461500 0.962400
vt 0.327700 1.000000
vt 0.144300 1.000000
vt 0.032900 0.900200
vt 0.123300 0.858600
vt 0.168500 0.425700
vt 0.085500 0.443600
vt 0.000000 0.374400
vt 0.000000 0.666700
vt 0.915400 0.344200
vt 0.915400 0.673900
vt 1.000000 0.374400
vt 0.832400 0.692700
vt 0.000000 0.295500
vt 1.000000 0.283800
vt 0.518800 1.000000
vt 0.744600 1.000000
vt 0.631700 0.976200
vt 0.717200 0.915400
vt 0.681100 0.959900
vt 0.730500 0.854700
vt 0.744600 0.715800
vt 0.681100 0.749400
vt 0.717200 0.793900
vt 0.631700 0.733200
vt 0.518800 0.715800
vt 0.546200 0.793900
vt 0.582300 0.749400
vt 0.532900 0.854700
vt 0.582300 0.959900
vt 0.546200 0.915400
vt 0.000000 0.000000
vt 1.000000 0.671500
vt 1.000000 1.000000
vt 0.966700 1.000000
vt 0.966700 0.711200
vt 0.941400 0.979700
vt 0.941400 0.729100
vt 0.817800 0.979700
vt 0.817800 0.729100
vt 0.786000 1.000000
vt 0.786000 0.711200
vt 0.759000 1.000000
vt 0.759000 0.711200
vt 1.000000 0.711200
f 1/1/1 2/2/2 3/3/1
f 4/4/2 5/5/3 2/2/2
f 6/6/3 7/7/4 5/5/3
f 8/8/4 9/9/5 7/7/4
f 10/10/5 11/11/6 9/9/5
f 12/12/6 13/13/7 11/11/6
f 14/14/7 15/15/8 13/13/7
f 16/16/8 17/17/9 15/18/8
f 18/19/9 19/20/10 17/17/9
f 20/21/10 21/22/11 19/20/10
f 22/23/11 23/24/12 21/22/11
f 24/25/12 3/3/1 23/24/12
f 3/3/13 25/26/13 26/27/13
f 2/2/14 27/28/14 25/26/14
f 5/5/15 28/29/15 27/28/15
f 7/7/16 29/30/16 28/29/16
f 9/9/17 30/31/17 29/30/17
f 11/11/18 31/32/18 30/31/18
f 13/13/19 32/33/19 31/32/19
f 15/18/20 33/34/20 32/35/20
f 17/17/21 34/36/21 33/34/21
f 19/20/22 35/37/22 34/36/22
f 21/22/23 36/38/23 35/37/23
f 23/24/24 26/27/24 36/38/24
f 26/27/25 37/39/25 38/40/25
f 25/26/26 39/41/26 37/39/26
f 27/28/27 40/42/27 39/41/27
f 28/29/28 41/43/28 40/42/28
f 29/30/29 42/44/29 41/43/29
f 30/31/30 43/45/30 42/44/30
f 31/32/31 44/46/31 43/45/31
f 32/35/32 45/47/32 44/48/32
f 33/34/33 46/49/33 45/47/33
f 34/36/34 47/50/34 46/49/34
f 35/37/35 48/51/35 47/50/35
f 36/38/36 38/40/36 48/51/36
f 38/40/13 49/52/13 50/53/13
f 37/39/14 51/54/14 49/52/14
f 39/41/15 52/55/15 51/54/15
f 40/42/16 53/56/16 52/55/16
f 41/43/17 54/57/17 53/56/17
f 42/44/18 55/58/18 54/57/18
f 43/45/19 56/59/19 55/58/19
f 44/48/20 57/60/20 56/61/20
f 45/47/21 58/62/21 57/60/21
f 46/49/22 59/63/22 58/62/22
f 47/50/23 60/64/23 59/63/23
f 48/51/24 50/53/24 60/64/24
f 50/53/25 61/65/25 62/66/25
f 49/52/26 63/67/26 61/65/26
f 51/54/27 64/68/27 63/67/27
f 52/55/28 65/69/28 64/68/28
f 53/56/29 54/57/29 66/70/29
f 54/57/30 67/71/30 68/72/30
f 55/58/31 69/73/31 67/71/31
f 56/61/32 57/60/32 69/74/32
f 57/60/33 70/75/33 71/76/33
f 58/62/34 59/63/34 70/75/34
f 59/63/35 60/64/35 72/77/35
f 60/64/36 62/66/36 73/78/36
f 74/79/37 75/80/37 76/81/37
f 77/82/38 78/83/38 79/84/38
f 80/85/39 81/86/39 75/80/39
f 61/65/40 76/81/40 62/87/40
f 65/69/37 82/88/37 64/68/37
f 62/87/41 78/83/41 73/89/41
f 72/90/42 77/82/42 83/91/42
f 73/89/43 78/83/43 72/90/43
f 84/92/44 85/93/44 81/86/44
f 83/91/45 85/93/45 84/92/45
f 75/80/46 77/82/46 79/84/46
f 86/94/29 65/69/29 66/70/29
f 87/95/30 82/88/30 86/94/30
f 88/96/31 81/97/31 87/95/31
f 89/98/32 84/99/32 88/100/32
f 70/75/33 83/101/33 89/98/33
f 66/70/47 90/102/47 86/94/47
f 66/70/48 68/72/48 90/102/48
f 90/102/49 88/96/49 87/95/49
f 90/102/50 87/95/50 86/94/50
f 90/103/51 89/98/51 88/100/51
f 90/103/52 70/75/52 89/98/52
f 68/72/53 67/71/53 90/102/53
f 67/71/54 69/73/54 90/102/54
f 69/74/55 71/76/55 90/103/55
f 71/76/56 70/75/56 90/103/56
f 63/67/57 82/88/57 75/80/57
f 75/80/37 78/83/37 76/81/37
f 74/79/58 63/67/58 75/80/58
f 75/80/37 79/84/37 78/83/37
f 91/104/59 92/105/59 20/106/59
f 92/105/59 24/107/59 22/108/59
f 92/105/59 1/109/59 24/107/59
f 92/105/59 93/110/59 1/109/59
f 93/110/59 6/111/59 4/112/59
f 93/110/59 8/113/59 6/111/59
f 93/110/59 94/114/59 8/113/59
f 94/114/59 12/115/59 10/116/59
f 94/114/59 14/117/59 12/115/59
f 94/114/59 91/104/59 14/117/59
f 91/104/59 18/118/59 16/119/59
f 91/104/59 20/106/59 18/118/59
f 91/104/59 16/119/59 14/117/59
f 94/114/59 10/116/59 8/113/59
f 93/110/59 4/112/59 1/109/59
f 92/105/59 22/108/59 20/106/59
f 78/83/60 77/82/60 72/90/60
f 75/80/61 85/93/61 77/82/61
f 81/86/62 85/93/62 75/80/62
f 83/91/63 77/82/63 85/93/63
f 64/68/37 82/88/37 63/67/37
f 63/67/64 74/79/64 61/65/64
f 62/87/65 76/81/65 78/83/65
f 1/1/1 4/4/2 2/2/2
f 4/4/2 6/6/3 5/5/3
f 6/6/3 8/8/4 7/7/4
f 8/8/4 10/10/5 9/9/5
f 10/10/5 12/12/6 11/11/6
f 12/12/6 14/14/7 13/13/7
f 14/14/7 16/120/8 15/15/8
f 16/16/8 18/19/9 17/17/9
f 18/19/9 20/21/10 19/20/10
f 20/21/10 22/23/11 21/22/11
f 22/23/11 24/25/12 23/24/12
f 24/25/12 1/1/1 3/3/1
f 3/3/13 2/2/13 25/26/13
f 2/2/14 5/5/14 27/28/14
f 5/5/15 7/7/15 28/29/15
f 7/7/16 9/9/16 29/30/16
f 9/9/17 11/11/17 30/31/17
f 11/11/18 13/13/18 31/32/18
f 13/13/19 15/15/19 32/33/19
f 15/18/20 17/17/20 33/34/20
f 17/17/21 19/20/21 34/36/21
f 19/20/22 21/22/22 35/37/22
f 21/22/23 23/24/23 36/38/23
f 23/24/24 3/3/24 26/27/24
f 26/27/25 25/26/25 37/39/25
f 25/26/26 27/28/26 39/41/26
f 27/28/27 28/29/27 40/42/27
f 28/29/28 29/30/28 41/43/28
f 29/30/29 30/31/29 42/44/29
f 30/31/30 31/32/30 43/45/30
f 31/32/31 32/33/31 44/46/31
f 32/35/32 33/34/32 45/47/32
f 33/34/33 34/36/33 46/49/33
f 34/36/34 35/37/34 47/50/34
f 35/37/35 36/38/35 48/51/35
f 36/38/36 26/27/36 38/40/36
f 38/40/13 37/39/13 49/52/13
f 37/39/14 39/41/14 51/54/14
f 39/41/15 40/42/15 52/55/15
f 40/42/16 41/43/16 53/56/16
f 41/43/17 42/44/17 54/57/17
f 42/44/18 43/45/18 55/58/18
f 43/45/19 44/46/19 56/59/19
f 44/48/20 45/47/20 57/60/20
f 45/47/21 46/49/21 58/62/21
f 46/49/22 47/50/22 59/63/22
f 47/50/23 48/51/23 60/64/23
f 48/51/24 38/40/24 50/53/24
f 50/53/25 49/52/25 61/65/25
f 49/52/26 51/54/26 63/67/26
f 51/54/27 52/55/27 64/68/27
f 52/55/28 53/56/28 66/70/28
f 52/55/28 66/70/28 65/69/28
f 54/57/29 68/72/29 66/70/29
f 54/57/30 55/58/30 67/71/30
f 55/58/31 56/59/31 69/73/31
f 57/60/32 71/76/32 69/74/32
f 57/60/33 58/62/33 70/75/33
f 59/63/34 72/77/34 83/101/34
f 59/63/34 83/101/34 70/75/34
f 60/64/35 73/78/35 72/77/35
f 60/64/36 50/53/36 62/66/36
f 61/65/40 74/79/40 76/81/40
f 80/85/66 75/80/66 82/88/66
f 86/94/29 82/88/29 65/69/29
f 87/95/30 80/85/30 82/88/30
f 81/97/31 80/85/31 87/95/31
f 84/99/32 81/121/32 88/100/32
f 83/101/33 84/99/33 89/98/33
f 95/122/26 96/123/26 97/124/35
f 96/123/67 98/125/67 99/126/67
f 98/125/1 100/127/1 101/128/1
f 100/127/68 102/129/68 103/130/68
f 102/129/1 93/131/1 92/132/1
f 95/122/26 97/124/35 104/133/35
f 96/123/67 99/126/67 97/124/67
f 98/125/1 101/128/1 99/126/1
f 100/127/68 103/130/68 101/128/68
f 102/129/1 92/132/1 103/130/1
f 105/122/32 97/124/35 106/123/32
f 106/123/69 99/126/69 107/125/69
f 107/125/10 101/128/10 108/127/10
f 108/127/68 103/130/68 109/129/68
f 109/129/10 92/132/10 91/131/10
f 105/122/32 104/133/35 97/124/35
f 106/123/69 97/124/69 99/126/69
f 107/125/10 99/126/10 101/128/10
f 108/127/68 101/128/68 103/130/68
f 109/129/10 103/130/10 92/132/10
f 105/122/32 106/123/32 110/124/29
f 106/123/70 107/125/70 111/126/70
f 107/125/7 108/127/7 112/128/7
f 108/127/68 109/129/68 113/130/68
f 109/129/7 91/131/7 94/132/7
f 105/122/32 110/124/29 114/133/29
f 106/123/70 111/126/70 110/124/70
f 107/125/7 112/128/7 111/126/7
f 108/127/68 113/130/68 112/128/68
f 109/129/7 94/132/7 113/130/7
f 95/122/26 110/124/29 96/123/26
f 96/123/71 111/126/71 98/125/71
f 98/125/4 112/128/4 100/127/4
f 100/127/68 113/130/68 102/129/68
f 102/129/4 94/132/4 93/131/4
f 95/122/26 114/133/29 110/124/29
f 96/123/71 110/124/71 111/126/71
f 98/125/4 111/126/4 112/128/4
f 100/127/68 112/128/68 113/130/68
f 102/129/4 113/130/4 94/132/4
